<svg xmlns="http://www.w3.org/2000/svg" version="1.1" xmlns:xlink="http://www.w3.org/1999/xlink" width="512" height="512" x="0" y="0" viewBox="0 0 512 512" style="enable-background:new 0 0 512 512" xml:space="preserve" class=""><g><path fill="#da0b62" d="M363.7 78C347.08 34.72 305.14 4 256.01 4c-8.67 0-17.11.96-25.23 2.77-51.54 11.5-90.11 57.51-90.11 112.569 0 63.6 51.57 115.33 115.34 115.33 62.23 0 112.72-49.24 115.21-110.55.08-1.58.11-3.18.11-4.78 0-14.15-2.56-28.13-7.63-41.34z" opacity="1" data-original="#da0b62"></path><path fill="#ea1576" d="M363.7 78C347.08 34.72 305.14 4 256.01 4c-8.67 0-17.11.96-25.23 2.77-.08 1.589-.11 3.19-.11 4.79 0 63.599 51.57 115.33 115.34 115.33 8.67 0 17.1-.951 25.21-2.77.08-1.58.11-3.181.11-4.781 0-14.15-2.56-28.13-7.63-41.34z" opacity="1" data-original="#ea1576"></path><path fill="#e9f5ff" d="M489.67 186.667v313.83H22.33v-313.83h140.04c20.93 29.08 55.09 48 93.64 48 38.6 0 72.71-18.95 93.62-48z" opacity="1" data-original="#e9f5ff"></path><path fill="#d6e4ed" d="M489.67 453.919v46.58H22.33v-313.83h68.29v198.558c0 37.938 30.754 68.692 68.692 68.692z" opacity="1" data-original="#d6e4ed"></path><path fill="#fafcff" d="M440.297 444.5h-175.26c-11.803 0-21.37-9.568-21.37-21.37V231.868c0-11.802 9.567-21.37 21.37-21.37h175.26c11.802 0 21.37 9.568 21.37 21.37v191.26c0 11.803-9.568 21.37-21.37 21.37z" opacity="1" data-original="#fafcff"></path><path fill="#80b6fc" d="M329.24 315.669v184.83H184.63v-184.83z" opacity="1" data-original="#80b6fc"></path><path fill="#69a6e8" d="M202.13 458.19V315.668h-17.5v184.83h144.61v-28.25H216.19c-7.765 0-14.06-6.295-14.06-14.06z" opacity="1" data-original="#69a6e8"></path><path fill="#6b90db" d="M341 285.166v23.669a6.833 6.833 0 0 1-6.833 6.832H177.833a6.833 6.833 0 0 1-6.833-6.832v-23.669a6.833 6.833 0 0 1 6.833-6.832h156.334a6.833 6.833 0 0 1 6.833 6.832zM162.36 186.667H22.334c-8.193 0-14.834-6.641-14.834-14.834V92.831c0-8.192 6.641-14.834 14.834-14.834H148.3a114.985 114.985 0 0 0-7.6 38.91 115.246 115.246 0 0 0 3.5 30.85c3.6 14.2 9.83 27.36 18.16 38.91zm327.306-108.67H363.7c4.65 12.12 7.32 25.22 7.6 38.91a115.252 115.252 0 0 1-3.5 30.85 114.68 114.68 0 0 1-18.16 38.91h140.026c8.193 0 14.834-6.641 14.834-14.834V92.831c0-8.192-6.641-14.834-14.834-14.834z" opacity="1" data-original="#6b90db"></path><path fill="#80b6fc" d="M438.158 311.667h-52.42c-7.784 0-14.095-6.31-14.095-14.095v-63.81c0-7.784 6.31-14.095 14.095-14.095h52.42c7.784 0 14.095 6.31 14.095 14.095v63.81c0 7.785-6.31 14.095-14.095 14.095zm-297.8-14.095v-63.81c0-7.784-6.312-14.095-14.096-14.095h-52.42c-7.784 0-14.095 6.31-14.095 14.095v63.81c0 7.785 6.31 14.095 14.095 14.095h52.42c7.784 0 14.095-6.31 14.095-14.095zm311.895 121.667v-63.81c0-7.784-6.31-14.095-14.095-14.095h-52.42c-7.784 0-14.095 6.31-14.095 14.095v63.81c0 7.784 6.31 14.095 14.095 14.095h52.42c7.784 0 14.095-6.31 14.095-14.095zm-311.896 0v-63.81c0-7.784-6.31-14.095-14.095-14.095h-52.42c-7.784 0-14.095 6.31-14.095 14.095v63.81c0 7.784 6.31 14.095 14.095 14.095h52.42c7.784 0 14.095-6.31 14.095-14.095z" opacity="1" data-original="#80b6fc"></path><path fill="#69a6e8" d="M452.25 405.739v13.5c0 7.78-6.31 14.09-14.09 14.09h-52.42c-7.79 0-14.1-6.31-14.1-14.09v-63.81c0-7.78 6.31-14.1 14.1-14.1h15.9v50.32c0 7.78 6.31 14.09 14.1 14.09zm-348.41 0c-7.78 0-14.09-6.31-14.09-14.09v-50.32H73.84c-7.78 0-14.09 6.32-14.09 14.1v63.81c0 7.78 6.31 14.09 14.09 14.09h52.42c7.79 0 14.1-6.31 14.1-14.09v-13.5zm311.9-121.662c-7.79 0-14.1-6.31-14.1-14.09v-50.32h-15.9c-7.79 0-14.1 6.32-14.1 14.1v63.81c0 7.78 6.31 14.09 14.1 14.09h52.42c7.78 0 14.09-6.31 14.09-14.09v-13.5zm-311.9 0c-7.78 0-14.09-6.31-14.09-14.09v-50.32H73.84c-7.78 0-14.09 6.32-14.09 14.1v63.81c0 7.78 6.31 14.09 14.09 14.09h52.42c7.79 0 14.1-6.31 14.1-14.09v-13.5z" opacity="1" data-original="#69a6e8"></path><path fill="#6b90db" d="M504.5 508H7.5a7.5 7.5 0 1 1 0-15h497a7.5 7.5 0 1 1 0 15z" opacity="1" data-original="#6b90db"></path><path fill="#4976bf" d="M162.36 186.669H22.33c-8.19 0-14.83-6.64-14.83-14.83v-79.01c0-8.19 6.64-14.83 14.83-14.83H42.5v23.547c0 30.079 24.384 54.463 54.463 54.463h49.667c3.7 11.06 9.04 21.38 15.73 30.66zm269.906-30.66c-20.107 0-34.59-19.013-29.575-38.484l.109-.426a115.256 115.256 0 0 0 3.5-30.85c-.06-2.78-.21-5.53-.47-8.25H363.7c4.65 12.12 7.32 25.22 7.6 38.91a115.256 115.256 0 0 1-3.5 30.85 114.68 114.68 0 0 1-18.16 38.91h140.03c8.19 0 14.83-6.64 14.83-14.84v-15.82h-72.234z" opacity="1" data-original="#4976bf"></path><path fill="#c6095f" d="M362.56 163.489c-17.31 41.72-58.41 71.18-106.55 71.18-63.77 0-115.34-51.73-115.34-115.33 0-39.62 19.97-74.55 50.38-95.31-5.65 13.59-8.76 28.5-8.76 44.14 0 63.6 51.56 115.33 115.34 115.33 24.11 0 46.45-7.39 64.93-20.01z" opacity="1" data-original="#c6095f"></path><path fill="#e9f5ff" d="M144.2 147.757H7.5v-30.85h133.2a115.246 115.246 0 0 0 3.5 30.85zm227.1-30.85a115.252 115.252 0 0 1-3.5 30.85h136.7v-30.85z" opacity="1" data-original="#e9f5ff"></path><path fill="#9ac9fc" d="M308.167 444.5h-20.334a6.333 6.333 0 0 1-6.333-6.334v-88.25a6.333 6.333 0 0 1 6.333-6.334h20.334a6.333 6.333 0 0 1 6.333 6.334v88.25a6.333 6.333 0 0 1-6.333 6.333zM245.282 444.5h-20.334a6.333 6.333 0 0 1-6.333-6.334v-88.25a6.333 6.333 0 0 1 6.333-6.334h20.334a6.333 6.333 0 0 1 6.333 6.334v88.25a6.333 6.333 0 0 1-6.333 6.333z" opacity="1" data-original="#9ac9fc"></path><path fill="#e9f5ff" d="M263.5 315.669v184.83h-15v-184.83zM274.96 183.109c-10.136-8.435-4.18-16.417-9.985-37.27-2.516-9.037-15.378-9.037-17.894 0-5.806 20.853.151 28.835-9.978 37.27-14.685 12.215-34.423-18.774-43.332-53.265-6.988-27.096-7.297-56.352 6.786-68.53 9.104-7.87 21.658-10.437 33.233-7.146l9.195 2.613a47.65 47.65 0 0 0 16.537 1.694 48.268 48.268 0 0 0 9.557-1.694l9.187-2.613c11.583-3.291 24.129-.723 33.233 7.146 31.705 27.397-9.812 144.033-36.539 121.795z" opacity="1" data-original="#e9f5ff"></path><g fill="#9ac9fc"><path d="M433.625 390.75a6.875 6.875 0 0 1-6.875-6.876v-24.5a6.875 6.875 0 0 1 13.75 0v24.5a6.875 6.875 0 0 1-6.875 6.875zM432.375 269.25a6.875 6.875 0 0 1-6.875-6.876v-24.5a6.875 6.875 0 1 1 13.75 0v24.5a6.875 6.875 0 0 1-6.875 6.875zM118.29 390.75a6.875 6.875 0 0 1-6.876-6.876v-24.5a6.875 6.875 0 0 1 13.75 0v24.5a6.875 6.875 0 0 1-6.875 6.875zM117.04 269.25a6.875 6.875 0 0 1-6.876-6.876v-24.5a6.875 6.875 0 1 1 13.75 0v24.5a6.875 6.875 0 0 1-6.875 6.875z" fill="#9ac9fc" opacity="1" data-original="#9ac9fc"></path></g></g></svg>