<svg xmlns="http://www.w3.org/2000/svg" version="1.1" xmlns:xlink="http://www.w3.org/1999/xlink" width="512" height="512" x="0" y="0" viewBox="0 0 32 32" style="enable-background:new 0 0 512 512" xml:space="preserve" class=""><g><path d="M4.76 11.545a.435.435 0 0 1-.469-.308 4.623 4.623 0 0 1 .325-3.826c.318-.564 1.189-.073.871.492a3.624 3.624 0 0 0-.255 2.997c.123.343-.173.619-.472.645zM6.282 6.792c-.48-.001-.68-.629-.289-.906.204-.144.421-.275.652-.39.578-.29 1.026.605.446.894a3.923 3.923 0 0 0-.521.312.494.494 0 0 1-.288.09z" fill="#000000" opacity="1" data-original="#000000" class=""></path><path d="m24.121 16.031 1.472-4.122c.982-2.751.123-5.688-2.19-7.48-2.333-1.807-5.415-1.905-7.858-.253-.432.292-.865.603-1.303.916L14 5.264l-.233-.166c-.44-.316-.877-.628-1.312-.923-2.441-1.652-5.525-1.553-7.857.254-2.313 1.793-3.172 4.729-2.19 7.48l4.729 13.244c.406 1.139 1.418 1.85 2.608 1.85.059 0 .118-.002.178-.006 1.266-.074 2.267-.921 2.55-2.157l1.48-6.867 1.575 6.869a2.728 2.728 0 0 0 1.22 1.734 2.86 2.86 0 0 0 2.018.364A6.478 6.478 0 0 0 23.5 29c3.584 0 6.5-2.916 6.5-6.5 0-3.375-2.586-6.155-5.879-6.469zm-6.847 9.695a1.716 1.716 0 0 1-.772-1.106l-1.575-6.87a.936.936 0 0 0-.927-.738.934.934 0 0 0-.927.739l-1.575 6.867c-.22.961-.989 1.344-1.634 1.382-.644.038-1.454-.253-1.786-1.182L3.349 11.573C2.337 8.737 3.647 6.432 5.21 5.22c1.981-1.537 4.606-1.622 6.685-.216.428.29.857.597 1.291.907 2.045 1.465 4.159 2.979 6.766 3.168a.5.5 0 0 0 .073-.998c-1.888-.136-3.559-1.107-5.155-2.208.415-.297.826-.592 1.237-.87 2.077-1.405 4.702-1.32 6.685.216 1.563 1.212 2.874 3.518 1.861 6.354l-1.588 4.449C19.683 16.249 17 19.064 17 22.5a6.45 6.45 0 0 0 1.019 3.479 1.839 1.839 0 0 1-.745-.253zM23.5 28c-3.033 0-5.5-2.468-5.5-5.5s2.467-5.5 5.5-5.5 5.5 2.468 5.5 5.5-2.467 5.5-5.5 5.5z" fill="#000000" opacity="1" data-original="#000000" class=""></path><path d="M24.5 26h-2a.5.5 0 0 1-.5-.5V24h-1.5a.5.5 0 0 1-.5-.5v-2a.5.5 0 0 1 .5-.5H22v-1.5a.5.5 0 0 1 .5-.5h2a.5.5 0 0 1 .5.5V21h1.5a.5.5 0 0 1 .5.5v2a.5.5 0 0 1-.5.5H25v1.5a.5.5 0 0 1-.5.5zM23 25h1v-1.5a.5.5 0 0 1 .5-.5H26v-1h-1.5a.5.5 0 0 1-.5-.5V20h-1v1.5a.5.5 0 0 1-.5.5H21v1h1.5a.5.5 0 0 1 .5.5z" fill="#000000" opacity="1" data-original="#000000" class=""></path></g></svg>