<svg xmlns="http://www.w3.org/2000/svg" version="1.1" xmlns:xlink="http://www.w3.org/1999/xlink" width="512" height="512" x="0" y="0" viewBox="0 0 267 267" style="enable-background:new 0 0 512 512" xml:space="preserve" fill-rule="evenodd" class=""><g><linearGradient id="a" x1="4" x2="60" y1="4" y2="4" gradientUnits="userSpaceOnUse"><stop offset="0" stop-color="#8843f8"></stop><stop offset="1" stop-color="#00a1ff"></stop></linearGradient><path fill="url(#a)" d="M32 486.215c-7.031-4.202-12.411-4.032-17.97-1.069-3.047 1.624-5.12 4.399-6.259 7.659-1.666 4.768-1.317 10.574.823 15.147 3.334 7.123 3.909 9.832 4.914 17.703 1.083 8.482 5.358 13.945 8.608 15.297 1.708.71 3.251.248 4.433-1.209 1.416-1.744 2.283-5.207 1.948-9.788-.283-3.883.566-6.414 1.717-7.807.599-.723 1.242-1.12 1.786-1.12s1.187.397 1.786 1.12c1.151 1.393 2 3.924 1.717 7.807-.335 4.581.532 8.044 1.948 9.788 1.182 1.457 2.725 1.919 4.433 1.209 3.25-1.352 7.525-6.815 8.608-15.297 1.005-7.871 1.58-10.58 4.914-17.703 2.14-4.573 2.489-10.379.823-15.147-1.139-3.26-3.212-6.035-6.259-7.659-5.556-2.961-10.941-3.129-17.97 1.069zm-1.922 1.202c-5.828-3.209-10.393-3.019-15.108-.506-2.598 1.385-4.34 3.773-5.311 6.554-1.5 4.293-1.181 9.521.747 13.639 3.445 7.364 4.047 10.162 5.086 18.298.587 4.598 2.158 8.241 3.965 10.681 1.127 1.521 2.328 2.565 3.427 3.022.869.361 1.63.037 2.214-.753.523-.708.914-1.727 1.166-2.991.292-1.464.386-3.241.239-5.26-.337-4.605.805-7.576 2.17-9.227 1.08-1.306 2.345-1.846 3.327-1.846s2.247.54 3.327 1.846c1.365 1.651 2.507 4.622 2.17 9.227-.241 3.304.154 5.951 1.013 7.613.632 1.223 1.521 1.842 2.606 1.391 1.099-.457 2.3-1.501 3.427-3.022 1.807-2.44 3.378-6.083 3.965-10.681 1.039-8.136 1.641-10.934 5.086-18.298 1.928-4.118 2.247-9.346.747-13.639-.971-2.781-2.713-5.169-5.311-6.554-5.083-2.709-9.998-2.715-16.503 1.323-.35.218-2.973 2.501-8.508 2.606a1.001 1.001 0 0 1-.038-2c2.903-.055 4.895-.793 6.097-1.423zm-18.465 17.574s4.331 8.283 4.89 16.108a1 1 0 1 0 1.994-.142c-.585-8.204-5.11-16.891-5.11-16.891a1 1 0 0 0-1.774.925zm41.601-6.578c-.691-7.864-8.473-12.07-15.572-9.347a1.002 1.002 0 0 0-.576 1.292c.198.515.777.773 1.292.576 5.851-2.245 12.294 1.173 12.863 7.653a1 1 0 0 0 1.993-.174z" transform="translate(0 -2000) scale(4.167)" opacity="1" data-original="url(#a)" class=""></path></g></svg>